<svg width="305" height="135" viewBox="0 0 305 135" fill="none" xmlns="http://www.w3.org/2000/svg">
<path d="M10.2205 25.6185L1.04715 73.9325C-2.45894 92.3983 64.1094 120.151 102.317 133.343C105.727 134.521 109.3 135.019 112.905 134.882C168.145 132.788 270.931 128.973 279.922 128.973C284.744 128.973 290.104 126.669 294.772 123.854C301.793 119.62 304.996 111.492 304.996 103.293V59.0321C304.996 49.9607 297.703 42.9027 295.211 34.1804C293.988 29.8994 278.699 19.5028 273.806 18.8912C271.497 18.6026 266.521 22.1304 261.74 26.1605C255.916 31.0697 248.777 34.319 241.164 34.568L129.889 38.2078C124.805 38.3741 119.762 37.2448 115.234 34.9259L53.9613 3.54674C37.5811 -4.84196 17.5788 3.35938 11.8026 20.8327L10.2205 25.6185Z" fill="#DCFFCC" fill-opacity="0.5"/>
</svg>
